<?xml version="1.0" encoding="UTF-8"?> <svg xmlns="http://www.w3.org/2000/svg" width="30" height="30" viewBox="0 0 30 30" fill="none"><rect x="0.5" y="0.5" width="29" height="29" rx="2.5" stroke="white"></rect><path d="M15 9C18.3138 9 21 11.6862 21 15C21 18.3138 18.3138 21 15 21C13.9397 21.0017 12.898 20.7211 11.982 20.187L9.00241 21L9.81361 18.0192C9.27906 17.1029 8.99824 16.0608 9.00001 15C9.00001 11.6862 11.6862 9 15 9ZM12.9552 12.18L12.8352 12.1848C12.7575 12.1895 12.6816 12.2099 12.612 12.2448C12.5469 12.2817 12.4875 12.3277 12.4356 12.3816C12.3636 12.4494 12.3228 12.5082 12.279 12.5652C12.0571 12.8537 11.9376 13.208 11.9394 13.572C11.9406 13.866 12.0174 14.1522 12.1374 14.4198C12.3828 14.961 12.7866 15.534 13.3194 16.065C13.4478 16.1928 13.5738 16.3212 13.7094 16.4406C14.3714 17.0235 15.1604 17.4438 16.0134 17.6682L16.3542 17.7204C16.4652 17.7264 16.5762 17.718 16.6878 17.7126C16.8626 17.7036 17.0332 17.6563 17.1876 17.574C17.2662 17.5335 17.3429 17.4895 17.4174 17.442C17.4174 17.442 17.4432 17.4252 17.4924 17.388C17.5734 17.328 17.6232 17.2854 17.6904 17.2152C17.7402 17.1636 17.7834 17.103 17.8164 17.034C17.8632 16.9362 17.91 16.7496 17.9292 16.5942C17.9436 16.4754 17.9394 16.4106 17.9376 16.3704C17.9352 16.3062 17.8818 16.2396 17.8236 16.2114L17.4744 16.0548C17.4744 16.0548 16.9524 15.8274 16.6332 15.6822C16.5998 15.6676 16.564 15.6593 16.5276 15.6576C16.4866 15.6534 16.4451 15.658 16.406 15.6712C16.3669 15.6843 16.331 15.7057 16.3008 15.7338C16.2978 15.7326 16.2576 15.7668 15.8238 16.2924C15.7989 16.3259 15.7646 16.3511 15.7253 16.3651C15.686 16.3789 15.6434 16.3808 15.603 16.3704C15.5639 16.3599 15.5256 16.3467 15.4884 16.3308C15.414 16.2996 15.3882 16.2876 15.3372 16.266C14.9928 16.1157 14.674 15.9127 14.3922 15.6642C14.3166 15.5982 14.2464 15.5262 14.1744 15.4566C13.9384 15.2305 13.7326 14.9748 13.5624 14.6958L13.527 14.6388C13.5016 14.6005 13.481 14.5592 13.4658 14.5158C13.443 14.4276 13.5024 14.3568 13.5024 14.3568C13.5024 14.3568 13.6482 14.1972 13.716 14.1108C13.782 14.0268 13.8378 13.9452 13.8738 13.887C13.9446 13.773 13.9668 13.656 13.9296 13.5654C13.7616 13.155 13.5876 12.7464 13.4088 12.3408C13.3734 12.2604 13.2684 12.2028 13.173 12.1914C13.1406 12.1878 13.1082 12.1842 13.0758 12.1818C12.9952 12.1778 12.9145 12.1786 12.834 12.1842L12.9552 12.18Z" fill="white"></path></svg> 